# xmcd
#
# Track frame offsets:
#	150
#	11573
#	24108
#	35409
#	46734
#	59759
#	70199
#	83414
#	96011
#	106141
#	118832
#	134050
#	147970
#	160593
#	171707
#	184944
#	199105
#	211164
#	224552
#	234761
#	248044
#	260248
#	274300
#	287541
#	301018
#	315751
#
# Disc length: 4363 seconds
#
# Revision: 1
# Processed by: cddbd v1.5.1PL2 Copyright (c) Steve Scherf et al.
# Submitted via: audiograbber 1.83.01
#
DISCID=6f11091a
DTITLE=Various Artist - The R&B Years 1949 Disk 1
DYEAR=1900
DGENRE=R&B
TTITLE0=Jimmy Liggins - Homecoming Blues
TTITLE1=Paul Williams - Walkin'  Around
TTITLE2=Piney Brown  - Mourning Blues
TTITLE3=Jay McShann - Hot Biscuits
TTITLE4=Cousin Joe - Beggin' Woman
TTITLE5=Roy Brown  - Rainy Weather Blues
TTITLE6=Andrew Tibbs  - I feel Like crying
TTITLE7=Big Jay McNeely - Deacon's Hop
TTITLE8=Joe Turner - I Don't Dig It
TTITLE9=Joe Morris - Weasel Walk
TTITLE10=Buddy and Ella Johnson - I Don't Care Who Knows
TTITLE11=Paul Williams - The Hucklebuck
TTITLE12=Wynonie Harris - I Feel that Old Age Coming on
TTITLE13=Edgar Hayes - Fat Meat 'N' Greens
TTITLE14=Jimmy Witherspoon - Ain't Nobody's Business Pt 1
TTITLE15=Jimmy Witherspoon - Ain't Nobody's Business Pt 2
TTITLE16=Dee Williams - Bongo Blues
TTITLE17=Julia Lee - I Didn't Like it the first time
TTITLE18=King Porter - King Porter Special
TTITLE19=Earl Bostic - Blip Boogie
TTITLE20=Roy Brown - Rockin' at Midnight
TTITLE21=Saunders King - Empty Bedroom
TTITLE22=Mabel Scott - Just Give Me a Man
TTITLE23=T-Bone Walker - T-Bone Shuffle
TTITLE24=June Richmond - 47th Street Jive
TTITLE25=Hal Singer - Beef Stew
EXTD=
EXTT0=
EXTT1=
EXTT2=
EXTT3=
EXTT4=
EXTT5=
EXTT6=
EXTT7=
EXTT8=
EXTT9=
EXTT10=
EXTT11=
EXTT12=
EXTT13=
EXTT14=
EXTT15=
EXTT16=
EXTT17=
EXTT18=
EXTT19=
EXTT20=
EXTT21=
EXTT22=
EXTT23=
EXTT24=
EXTT25=
PLAYORDER=
